<svg xmlns="http://www.w3.org/2000/svg" width="3852" height="1713" fill="none" viewBox="0 0 3852 1713">
  <g clip-path="url(#clip0)">
    <path fill="#fff" d="M0 0h3852v1713H0z"/>
    <path fill="#fff" d="M2568 0h1284v1713H2568z"/>
    <path fill="#F0B135" d="M3176.8 578.4l-84.8-147L3287.7 318l84.8 147z"/>
    <path fill="#F7EFE6" d="M3245.5 464l163.9 44-58.6 218.5-163.8-44z"/>
    <path fill="#F0B135" d="M3369.1 712l50 162.2L3203 941l-50-162.1z"/>
    <path fill="#268FA6" d="M3335.3 895.3l-43.9 164-218.4-58.2 43.8-164z"/>
    <path fill="#595091" fill-rule="evenodd" d="M3510.7 1328A309.6 309.6 0 0 0 3061 982.3l155.9 270.2.8-3 292.9 78.5zm-291.2-64.9l287.9 77.2a309.6 309.6 0 0 1-559 79.4l262.8-151.8 5.1-3 3.2-1.8zm-14.6-6.2l-263 152A309.8 309.8 0 0 1 3050 988.6l154.8 268.2z" clip-rule="evenodd"/>
    <ellipse cx="262.7" cy="263.3" fill="#fff" rx="262.7" ry="263.3" transform="translate(2948.2 990.4)"/>
    <ellipse cx="223.9" cy="224" fill="#F0B135" rx="223.9" ry="224" transform="translate(2987 1029.2)"/>
    <path fill="#fff" d="M3067.7 1289h7.1l3.3 26.5 6.1-11-2.1-15.4h6.1l1.2 11.2 5.9-11.2h6.1l-8.8 15.5 1.6 10.9 14.5-26.5h7.2l-20.4 34h-5.5l-2.4-14.3-8.6 14.3h-5.5l-5.8-34zm51.8 0h6.6l-7.2 34h-6.6l7.2-34zm17.7 34.4c-2.4 0-4.8-.4-7-1.1a17 17 0 0 1-5.7-3.3l4.1-5.7c.2.3.5.7 1.1 1.2l2.2 1.4 3 1.1c1.2.3 2.4.5 3.7.5 1.9 0 3.3-.4 4.2-1.1 1-.8 1.5-1.8 1.5-3 0-.7-.2-1.2-.6-1.6-.4-.5-.9-.9-1.5-1.2a50.5 50.5 0 0 0-5.2-2 15 15 0 0 1-5.5-2.7 5.9 5.9 0 0 1-1.8-4.6c0-2 .4-3.7 1.2-5.3a12.5 12.5 0 0 1 7.8-6.4 17.5 17.5 0 0 1 11.5.3 17 17 0 0 1 4.5 2.6l-4.1 5.4a4 4 0 0 0-1-1l-1.7-1a11.7 11.7 0 0 0-5.2-1.4c-2 0-3.4.5-4.3 1.3-1 .8-1.5 2-1.5 3.3 0 .5.2 1 .4 1.4.3.4.7.8 1.3 1 .5.4 1.2.7 2 1l2.6.7 3.5 1.2c1 .5 2 1 2.7 1.7a6 6 0 0 1 1.6 2.2c.5.8.7 1.9.7 3a11.4 11.4 0 0 1-4.5 9.3 15.6 15.6 0 0 1-10 2.8zm24.4-34.4h22.1l-1.2 5.8H3167l-1.8 8.2h13.4l-1.1 5.4H3164l-1.9 8.8h16l-1.3 5.9h-22.5l7.2-34.1zm33.7 34.3a11.3 11.3 0 0 1-9.2-4.4c-1-1.4-1.9-3-2.5-4.6a18.3 18.3 0 0 1 1.8-14.8 23 23 0 0 1 7.1-7.6 20.3 20.3 0 0 1 10.3-3.1c3 0 5.5.7 7.4 2a9.2 9.2 0 0 1 3.7 5.4l-5.8 3.5a6 6 0 0 0-2.6-4l-2-.8a9.5 9.5 0 0 0-7 1 13 13 0 0 0-3.7 3.3 15 15 0 0 0-3.2 9.2 9.7 9.7 0 0 0 1.8 6.4c.6.8 1.4 1.5 2.2 2 1 .4 2 .7 3.1.7a9.7 9.7 0 0 0 4.7-1.2 10.7 10.7 0 0 0 4.2-4l4.7 3.1c-.7 1.3-1.7 2.4-2.9 3.4a18.8 18.8 0 0 1-8 4c-1.5.4-2.8.5-4.1.5zm17.8-.2l7.3-34.1h14.4c1.2 0 2.4.2 3.4.8 1 .5 2 1.2 2.6 2.1a10.6 10.6 0 0 1 1.5 10.2 14 14 0 0 1-4.2 6.2c-1 .8-2 1.5-3.2 2l4.6 12.7h-7.5l-4-11.4h-5.9l-2.4 11.5h-6.6zm17.9-17.3a4 4 0 0 0 1.8-.5c.7-.4 1.2-.9 1.7-1.5a8.2 8.2 0 0 0 1.7-4.8c0-1.2-.3-2.2-1-3a2.4 2.4 0 0 0-2.1-1.2h-7.4l-2.4 11h7.7zm26.8 17.5c-2 0-3.8-.4-5.4-1.2a12.5 12.5 0 0 1-6.4-7.6 18.3 18.3 0 0 1 .8-12.9 22.5 22.5 0 0 1 10.9-11.1 17 17 0 0 1 7.6-1.8 11.4 11.4 0 0 1 9.2 4.4c1 1.3 1.8 2.8 2.4 4.6a17.6 17.6 0 0 1-.8 12.8 22 22 0 0 1-10.8 11 16.6 16.6 0 0 1-7.5 1.8zm1.3-5.9c1.7 0 3.3-.4 4.8-1.3 1.5-.8 2.7-2 3.8-3.3a15.6 15.6 0 0 0 3.3-9.3c0-1.2-.2-2.3-.4-3.4a8 8 0 0 0-1.4-2.8 6.4 6.4 0 0 0-5.3-2.7c-1.8 0-3.4.5-4.9 1.3a17 17 0 0 0-3.8 3.3 15.4 15.4 0 0 0-2.8 12.8 7 7 0 0 0 3.6 4.8 7 7 0 0 0 3 .6zm21.8-28.4h7.1l3.3 26.5 6.1-11-2-15.4h6l1.2 11.2 5.9-11.2h6.1l-8.8 15.5 1.6 10.9 14.5-26.5h7.2l-20.3 34h-5.5l-2.5-14.3-8.5 14.3h-5.6l-5.8-34zm51.9 0h11.8c2.2 0 4.1.3 5.7 1a10.8 10.8 0 0 1 6.4 7c.5 1.6.8 3.3.8 5.2 0 3-.5 5.8-1.5 8.3a19.3 19.3 0 0 1-10.6 11c-2.5 1-5.1 1.6-8 1.6h-11.9l7.3-34.1zm5.8 28.2c1.8 0 3.5-.3 5-1.1a12 12 0 0 0 3.8-3 16.6 16.6 0 0 0 3.3-9.9 9 9 0 0 0-1.9-6.1c-1.2-1.6-3-2.3-5.4-2.3h-5.3l-4.7 22.4h5.2zm-184.7 27.8h21.8l-1.3 5.8h-15.2l-1.8 8.8h12.6l-1.2 5.3h-12.5l-3 14.2h-6.6l7.2-34.1zm33.1 34.3c-2 0-3.8-.3-5.2-.9a9.5 9.5 0 0 1-3.5-2.4 10 10 0 0 1-2-3.7 24.8 24.8 0 0 1 0-10l3.8-17.3h6.6l-3.7 17.3a26.6 26.6 0 0 0-.5 4.3c0 1 0 1.9.3 2.7.2.8.5 1.6 1 2.2.4.6 1 1 1.7 1.4.8.4 1.6.5 2.7.5a7 7 0 0 0 3.8-1 10 10 0 0 0 3-2.4 14 14 0 0 0 2-3.5c.5-1.4 1-2.7 1.2-4.2l3.7-17.3h6.6l-3.7 17.3a27 27 0 0 1-2.2 6.6c-1 2-2.2 3.9-3.7 5.4a16.2 16.2 0 0 1-11.9 5zm28.1-34.3h5.2l11.6 22.3 4.7-22.3h6.6l-7.2 34h-5.4l-11.5-21.8-4.7 21.8h-6.5l7.2-34zm35.2 0h11.9c2.2 0 4 .3 5.7 1a10.8 10.8 0 0 1 6.4 7 22.3 22.3 0 0 1-.8 13.5 19.3 19.3 0 0 1-10.6 11c-2.4 1-5 1.6-8 1.6h-11.8l7.2-34.1zm5.8 28.2c1.9 0 3.5-.3 5-1.1a12 12 0 0 0 3.8-3c1-1.4 1.9-2.9 2.5-4.6.5-1.7.8-3.5.8-5.4 0-2.5-.6-4.5-1.8-6-1.3-1.6-3-2.3-5.5-2.3h-5.3l-4.7 22.4h5.2z"/>
    <path stroke="#27265C" stroke-width="14" d="M3083.2 1138.4l64.1 59.7 64.1-36.9 64.1 55.4 64.1-50.1"/>
    <path stroke="#595091" stroke-width="14" d="M3083.2 1138.4l64.1 48.3 64.1-48.3 64.1 55.4 64.1-95.7"/>
    <path stroke="#fff" stroke-width="10" d="M3083.2 1249.2h256.4"/>
    <path fill="#595091" fill-rule="evenodd" d="M3256.6 269c.3-.4.1-1-.4-1.3L3065 157.2a1 1 0 0 0-1.4.4l-163.8 283.6a1 1 0 0 0 .4 1.3L3091.4 553a1 1 0 0 0 1.4-.3l52.7-91.3 35.6 20.5a2 2 0 0 0 2.7-.7l56.3-97.5a2 2 0 0 0-.7-2.8l-35.6-20.5 52.8-91.3zm-100.8 174.5l37.8-65.3 18.8 11c.5.2.7.8.4 1.3l-36.7 63.6a1 1 0 0 1-1.4.3l-18.9-10.9z" clip-rule="evenodd"/>
    <path fill="#F0B135" d="M1284 0h1284v1713H1284z"/>
    <path fill="#fff" fill-rule="evenodd" d="M1607.4 271a1 1 0 0 0 0 1.5l90 90c.4.4 1 .4 1.5 0l133.7-133.7c.4-.4.4-1 0-1.4l-90-90a1 1 0 0 0-1.5 0l-43 43L1682 164a2 2 0 0 0-2.8 0l-45 45a2 2 0 0 0 0 2.8l16.2 16.2-43 43zm82.3-82.2l-31 30.9-8.6-8.7a1 1 0 0 1 0-1.4l29.6-29.5a1 1 0 0 1 1.4 0l8.6 8.7zm134.9 143.3a1 1 0 0 0 0 1.4l90 90c.4.5 1 .5 1.4 0L2049.8 290c.4-.4.4-1 0-1.4l-90.1-90a1 1 0 0 0-1.4 0l-43 42.9-16.2-16.3a2 2 0 0 0-2.9 0l-45 45a2 2 0 0 0 0 2.8l16.3 16.3-43 43zm82.3-82.3l-31 31-8.6-8.7a1 1 0 0 1 0-1.4l29.5-29.5a1 1 0 0 1 1.4 0l8.7 8.6zm136.1 142a1 1 0 0 0 0 1.4l90.1 90c.4.5 1 .5 1.5 0l133.7-133.6c.4-.4.4-1 0-1.4l-90-90a1 1 0 0 0-1.5 0l-43 42.9-16.2-16.3a2 2 0 0 0-2.8 0l-45 45a2 2 0 0 0 0 2.8L2086 349l-43 43zm82.4-82.3l-31 31-8.6-8.7a1 1 0 0 1 0-1.4l29.5-29.5a1 1 0 0 1 1.5 0l8.6 8.6z" clip-rule="evenodd"/>
    <path fill="#595091" fill-rule="evenodd" d="M2008 1202.6V1144a2 2 0 0 0-2-2h-160a2 2 0 0 0-2 2v58.6h-148.8a1 1 0 0 0-1 1v311.7c0 .5.5 1 1 1h461.6c.5 0 1-.5 1-1v-311.7c0-.6-.5-1-1-1H2008zm-29 0v-31.1c0-.6-.4-1-1-1h-104a1 1 0 0 0-1 1v31h106z" clip-rule="evenodd"/>
    <path fill="#fff" d="M1781.2 1315h7.1l3.3 26.4 6.1-10.9-2.1-15.5h6.1l1.2 11.3 5.9-11.3h6.1l-8.8 15.5 1.6 11 14.5-26.6h7.2L1809 1349h-5.5l-2.4-14.3-8.6 14.3h-5.5l-5.8-34zm51.8 0h6.6l-7.2 34h-6.6l7.2-34zm17.7 34.4c-2.4 0-4.8-.4-7-1.2a17 17 0 0 1-5.7-3.2l4.1-5.7 1.1 1.1 2.2 1.4 3 1.2c1.2.3 2.4.4 3.7.4 1.9 0 3.3-.3 4.2-1 1-.8 1.5-1.8 1.5-3.1 0-.6-.2-1.1-.6-1.6l-1.5-1.2-2.3-1-2.9-.9a15 15 0 0 1-5.5-2.7 5.9 5.9 0 0 1-1.8-4.6c0-2 .4-3.8 1.2-5.3a12.5 12.5 0 0 1 7.8-6.5 17.5 17.5 0 0 1 11.5.3 17 17 0 0 1 4.5 2.7l-4.1 5.3a4 4 0 0 0-1-.9l-1.7-1a11.7 11.7 0 0 0-5.2-1.4c-2 0-3.4.4-4.3 1.2-1 .9-1.5 2-1.5 3.3 0 .6.2 1 .4 1.5.3.4.7.7 1.3 1l2 .9 2.6.8a18 18 0 0 1 6.2 2.8 6 6 0 0 1 1.6 2.2c.5.9.7 1.9.7 3a11.4 11.4 0 0 1-4.5 9.3c-1.4 1-3 1.8-4.7 2.2-1.7.5-3.5.7-5.3.7zm24.4-34.5h22.1l-1.2 5.8h-15.5l-1.8 8.2h13.4l-1.1 5.4h-13.4l-1.9 8.9h16l-1.3 5.8h-22.5l7.2-34zm33.7 34.4a11.3 11.3 0 0 1-9.2-4.5 17 17 0 0 1-2.5-4.6 18.3 18.3 0 0 1 1.8-14.8 23 23 0 0 1 7.1-7.6 20.3 20.3 0 0 1 10.3-3c3 0 5.5.6 7.4 2a9.2 9.2 0 0 1 3.7 5.4l-5.8 3.5c-.2-1-.5-1.8-1-2.4-.4-.7-1-1.2-1.6-1.6a5 5 0 0 0-2-.8 9.5 9.5 0 0 0-7 1c-1.5.8-2.7 2-3.7 3.3a15 15 0 0 0-3.2 9.2c0 1.2.1 2.4.4 3.5.3 1 .8 2 1.4 2.8a7 7 0 0 0 2.2 2c1 .5 2 .7 3.1.7a9.7 9.7 0 0 0 4.7-1.2 10.7 10.7 0 0 0 4.2-4l4.7 3.2c-.7 1.2-1.7 2.4-2.9 3.4a18.8 18.8 0 0 1-8 4c-1.5.3-2.8.5-4.1.5zm17.8-.3l7.3-34h14.4c1.2 0 2.4.2 3.4.7 1 .5 2 1.3 2.6 2.1a10.6 10.6 0 0 1 1.5 10.2 14 14 0 0 1-4.2 6.2c-1 .8-2 1.5-3.2 2l4.6 12.8h-7.5l-4-11.4h-5.9l-2.4 11.4h-6.6zm17.9-17.2c.6 0 1.2-.2 1.8-.6.7-.3 1.2-.8 1.7-1.4a8.2 8.2 0 0 0 1.7-4.8c0-1.2-.3-2.2-1-3-.5-.9-1.2-1.3-2.1-1.3h-7.4l-2.4 11h7.7zm26.8 17.4c-2 0-3.8-.3-5.4-1.1a12.5 12.5 0 0 1-6.4-7.7 18.3 18.3 0 0 1 .8-12.9 22.5 22.5 0 0 1 10.9-11 17 17 0 0 1 7.6-1.8 11.4 11.4 0 0 1 9.2 4.3c1 1.4 1.9 2.9 2.4 4.6a17.6 17.6 0 0 1-.8 12.9 22 22 0 0 1-10.8 11 16.5 16.5 0 0 1-7.5 1.7zm1.3-5.8c1.7 0 3.3-.4 4.8-1.3s2.7-2 3.8-3.3a15.6 15.6 0 0 0 3.3-9.4c0-1.2-.2-2.3-.4-3.3a8 8 0 0 0-1.4-2.9 6.4 6.4 0 0 0-5.3-2.6c-1.8 0-3.4.4-4.9 1.3-1.4.8-2.7 1.9-3.8 3.2a15.4 15.4 0 0 0-2.8 12.8 7 7 0 0 0 3.6 4.8 7 7 0 0 0 3 .7zm21.8-28.5h7.1l3.3 26.5 6.1-10.9-2-15.5h6l1.2 11.3 5.9-11.3h6.1l-8.8 15.5 1.6 11 14.5-26.6h7.2l-20.3 34.1h-5.5l-2.5-14.3-8.5 14.3h-5.6l-5.8-34zm51.9 0h11.8c2.2 0 4.1.4 5.7 1a10.8 10.8 0 0 1 6.4 7c.5 1.6.8 3.4.8 5.2 0 3-.5 5.8-1.5 8.4a19.3 19.3 0 0 1-10.6 11 21 21 0 0 1-8 1.5H2039l7.3-34zm5.8 28.3c1.8 0 3.5-.4 5-1.2a12 12 0 0 0 3.8-3 16.6 16.6 0 0 0 3.3-9.9c0-2.5-.6-4.5-1.9-6-1.2-1.6-3-2.4-5.4-2.4h-5.3l-4.7 22.5h5.2zm-233 27.7h21.7l-1.2 5.8h-15.2l-1.8 8.8h12.5l-1.1 5.4h-12.6l-3 14.1h-6.6l7.2-34zm33 34.3c-2 0-3.7-.2-5.2-.8a9.5 9.5 0 0 1-3.4-2.5 10 10 0 0 1-2-3.6 17 17 0 0 1-.6-4.6c0-1.7.2-3.5.6-5.4l3.7-17.4h6.6l-3.7 17.4a26.6 26.6 0 0 0-.5 4.3c0 1 .1 1.8.3 2.7a5.2 5.2 0 0 0 2.7 3.6c.8.3 1.7.5 2.8.5a7 7 0 0 0 3.8-1c1.1-.6 2-1.4 2.9-2.5a19.6 19.6 0 0 0 3.3-7.6l3.7-17.4h6.6l-3.7 17.4a22.8 22.8 0 0 1-5.9 11.9 16.2 16.2 0 0 1-11.9 5zm28.2-34.3h5.1l11.6 22.4 4.8-22.3h6.5l-7.2 34h-5.3l-11.6-21.8-4.6 21.8h-6.6l7.3-34zm35.2 0h11.8c2.2 0 4.1.4 5.7 1a10.8 10.8 0 0 1 6.4 7c.5 1.6.8 3.4.8 5.2 0 3-.5 5.8-1.5 8.4a19.3 19.3 0 0 1-10.7 11c-2.4 1-5 1.5-8 1.5h-11.8l7.3-34zm5.8 28.3c1.8 0 3.5-.4 5-1.2a12 12 0 0 0 3.8-3 16.6 16.6 0 0 0 3.3-9.9c0-2.5-.7-4.5-1.9-6-1.2-1.6-3-2.4-5.4-2.4h-5.3l-4.8 22.5h5.3zm27.4-28.3h6.6l-6 28.3h16.3l-1.2 5.8h-23l7.3-34zm27 0h6.5l-7.3 34.1h-6.5l7.2-34zm17.5 34.5a21 21 0 0 1-7-1.2 17 17 0 0 1-5.6-3.2l4-5.7 1.2 1.1c.6.5 1.3 1 2.2 1.4l3 1.2c1.2.3 2.4.4 3.6.4 2 0 3.4-.3 4.3-1 1-.8 1.4-1.8 1.4-3.1a3 3 0 0 0-.5-1.6l-1.5-1.2-2.3-1-3-.9a15 15 0 0 1-5.4-2.7 5.9 5.9 0 0 1-1.9-4.6c0-2 .4-3.8 1.2-5.3a12.5 12.5 0 0 1 7.8-6.5 17.5 17.5 0 0 1 11.5.3 17 17 0 0 1 4.6 2.7l-4.1 5.3a4 4 0 0 0-1-.9c-.4-.3-1-.7-1.8-1a11.7 11.7 0 0 0-5.1-1.4c-2 0-3.4.4-4.4 1.2-1 .9-1.4 2-1.4 3.3 0 .6.1 1 .4 1.5.3.4.7.7 1.2 1l2 .9 2.7.8c1.3.3 2.4.7 3.4 1.2 1 .4 2 1 2.7 1.6a6 6 0 0 1 1.7 2.2c.4.9.6 1.9.6 3 0 2.2-.4 4-1.2 5.6a12.1 12.1 0 0 1-7.9 5.9c-1.8.5-3.5.7-5.4.7zm30-28.7h-10.3l1.2-5.8h27l-1.2 5.8h-10.2l-6 28.3h-6.6l6-28.3z"/>
    <path fill="#27265C" d="M2222 602h-592v108.6l269 128.6 13.5 75.8h27l13.4-75.8L2222 710.6V602z"/>
    <path fill="#fff" fill-rule="evenodd" d="M2220.6 897.2h-19v-13.8a51 51 0 0 1-10.8-3l-7 12.3-16.5-9.5 7.1-12.4a61.5 61.5 0 0 1-7.6-7.7l-11.8 6.8-9.5-16.5 12-6.9c-1.2-3.1-2-6.5-2.6-9.9H2141v-19h13.9c.6-3.7 1.6-7.3 2.9-10.7l-12.3-7.1 9.5-16.5 12.4 7.2c2.1-2.6 4.4-4.9 7-7L2167 771l16.5-9.5 7 12.3c3.6-1.3 7.2-2.3 11-3V757h19v13.9a49 49 0 0 1 10 2.6l6.8-11.7 16.4 9.5-6.7 11.6c2.8 2.3 5.3 4.8 7.6 7.5l12.2-7 9.5 16.4-12 7c1.3 3.4 2.3 7 3 10.8h13.8v19h-13.9c-.6 3.5-1.5 6.8-2.6 10l11.7 6.8-9.5 16.5-11.6-6.7c-2.5 3-5.3 5.8-8.3 8.2l6.7 11.6-16.5 9.5-6.7-11.7c-3.2 1.1-6.5 2-10 2.6v13.8zm-39-70a29.4 29.4 0 1 1 58.9-.1 29.4 29.4 0 0 1-58.8 0zm-51.2 114h-10.6v-7.7c-2-.3-4-.9-6-1.6l-4 6.8-9.1-5.3 4-7a32 32 0 0 1-4.3-4.2l-6.6 3.8-5.3-9.2 6.7-3.9c-.7-1.7-1.1-3.6-1.5-5.5h-7.7v-10.6h7.7c.4-2.1 1-4.1 1.7-6l-6.9-4 5.3-9.2 7 4a32 32 0 0 1 3.8-3.9l-4-7 9.2-5.2 4 6.8c1.9-.7 4-1.3 6-1.6v-7.8h10.6v7.8c2 .3 3.8.8 5.6 1.4l3.8-6.5 9.2 5.3-3.7 6.5a32 32 0 0 1 4.2 4.2l6.8-4 5.3 9.2-6.7 4c.7 1.8 1.3 3.9 1.6 6h7.8v10.6h-7.8c-.3 2-.8 3.8-1.4 5.6l6.5 3.8-5.3 9.2-6.5-3.8a32 32 0 0 1-4.6 4.6l3.7 6.5-9.2 5.3-3.7-6.5c-1.8.6-3.7 1-5.6 1.4v7.7zm-21.7-39.1a16.4 16.4 0 1 1 32.9 0 16.4 16.4 0 0 1-32.9 0zm-478.1 7.9h19v13.9c3.7.6 7.3 1.6 10.7 2.9l7.1-12.3 16.5 9.5-7.2 12.4a56 56 0 0 1 7.6 7.8l11.8-6.9 9.5 16.5-11.9 6.9c1.2 3.2 2 6.5 2.6 10h13.9v19h-13.9c-.6 3.6-1.6 7.2-3 10.7l12.3 7-9.5 16.5-12.3-7.1a57.4 57.4 0 0 1-7 7l7.2 12.4-16.4 9.5-7.1-12.3a56.6 56.6 0 0 1-11 3v13.8h-19v-13.8c-3.4-.6-6.7-1.5-10-2.7l-6.7 11.8-16.5-9.5 6.7-11.7a57.3 57.3 0 0 1-7.5-7.4l-12.2 7-9.5-16.4 12-7a56.7 56.7 0 0 1-3-10.9H1570v-19h13.9a49 49 0 0 1 2.6-10l-11.7-6.8 9.5-16.5 11.6 6.8c2.5-3 5.2-5.8 8.3-8.3l-6.7-11.5 16.4-9.5 6.8 11.7c3.2-1.2 6.5-2 9.9-2.6V910zm38.9 70.1a29.4 29.4 0 1 1-58.8 0 29.4 29.4 0 0 1 58.8 0zm51.2-114.1h10.6v7.7c2.1.4 4.1 1 6 1.7l4-6.9 9.2 5.3-4 7a32 32 0 0 1 4.2 4.3l6.6-3.8 5.3 9.2-6.6 3.8c.6 1.8 1.1 3.6 1.4 5.5h7.8v10.7h-7.8c-.3 2-.9 4-1.6 6l6.8 4-5.3 9.1-6.9-4a32 32 0 0 1-3.9 4l4 6.9-9.1 5.3-4-6.9c-2 .8-4 1.3-6 1.7v7.7h-10.7v-7.7c-2-.4-3.8-.8-5.6-1.5l-3.8 6.6-9.2-5.4 3.8-6.5a32 32 0 0 1-4.2-4.1l-6.9 4-5.3-9.3 6.8-3.9c-.8-2-1.3-4-1.7-6h-7.7v-10.7h7.7c.4-1.9.8-3.8 1.5-5.5l-6.6-3.8 5.3-9.2 6.6 3.7a32 32 0 0 1 4.6-4.6l-3.8-6.4 9.2-5.3 3.8 6.5c1.8-.7 3.6-1.1 5.5-1.5V866zm21.7 39.2a16.4 16.4 0 1 1-32.8 0 16.4 16.4 0 0 1 32.8 0z" clip-rule="evenodd"/>
    <path fill="#268FA6" d="M0 0h1284v1713H0z"/>
    <path fill="#fff" fill-rule="evenodd" d="M366.1 437.5a1 1 0 0 0 0 1.5l44.7 44.7c.3.4 1 .4 1.4 0l66.6-66.8c.4-.4.4-1 0-1.4l-44.6-44.7a1 1 0 0 0-1.5 0L411.5 392l-7.5-7.5a2 2 0 0 0-2.8 0l-21.3 21.3a2 2 0 0 0 0 2.8l7.5 7.5-21.3 21.3zm41.1-41.2L391.6 412l-4-4a1 1 0 0 1 0-1.5l14.2-14.2a1 1 0 0 1 1.4 0l4 4z" clip-rule="evenodd"/>
    <ellipse cx="15.2" cy="15.6" fill="#fff" rx="15.2" ry="15.6" transform="translate(313.9 350)"/>
    <path fill="#fff" d="M301.7 386h54.8v46.7h-54.8zm12.2 51.4h30.4v46.8h-30.4z"/>
    <path fill="#fff" fill-rule="evenodd" d="M617.8 437.5a1 1 0 0 0 0 1.5l44.7 44.7c.4.4 1 .4 1.4 0l66.7-66.8c.3-.4.3-1 0-1.4l-44.7-44.7a1 1 0 0 0-1.4 0L663.2 392l-7.5-7.5a2 2 0 0 0-2.8 0l-21.3 21.3a2 2 0 0 0 0 2.8l7.5 7.5-21.3 21.3zm41.2-41.2L643.4 412l-4-4a1 1 0 0 1 0-1.5l14.1-14.2a1 1 0 0 1 1.4 0l4 4z" clip-rule="evenodd"/>
    <ellipse cx="15.2" cy="15.6" fill="#fff" rx="15.2" ry="15.6" transform="translate(565.6 350)"/>
    <path fill="#fff" d="M553.4 386h54.8v46.7h-54.8zm12.2 51.4H596v46.8h-30.4z"/>
    <path fill="#fff" fill-rule="evenodd" d="M869.6 437.5a1 1 0 0 0 0 1.5l44.6 44.7c.4.4 1 .4 1.4 0l66.7-66.8c.4-.4.4-1 0-1.4l-44.7-44.7a1 1 0 0 0-1.4 0L915 392l-7.4-7.5a2 2 0 0 0-2.9 0l-21.2 21.3a2 2 0 0 0 0 2.8l7.5 7.5-21.3 21.3zm41-41.2L895.2 412l-4-4a1 1 0 0 1 0-1.5l14.2-14.2a1 1 0 0 1 1.4 0l4 4z" clip-rule="evenodd"/>
    <ellipse cx="15.2" cy="15.6" fill="#fff" rx="15.2" ry="15.6" transform="translate(817.4 350)"/>
    <path fill="#fff" d="M805.2 386H860v46.7h-54.8zm12.2 51.4h30.4v46.8h-30.4z"/>
    <path fill="#fff" fill-rule="evenodd" d="M362.4 614.1a1 1 0 0 0 0 1.4l44.7 44.8c.3.4 1 .4 1.4 0l66.6-66.8c.4-.4.4-1 0-1.4l-44.6-44.8a1 1 0 0 0-1.5 0l-21.2 21.4-7.5-7.5a2 2 0 0 0-2.9 0l-21.2 21.3a2 2 0 0 0 0 2.8l7.5 7.5-21.3 21.3zm41.1-41.2L388 588.5l-4-4a1 1 0 0 1 0-1.4l14.2-14.2a1 1 0 0 1 1.4 0l4 4z" clip-rule="evenodd"/>
    <ellipse cx="15.2" cy="15.6" fill="#fff" rx="15.2" ry="15.6" transform="translate(310.2 526.6)"/>
    <path fill="#fff" d="M298 562.5h54.8v46.8H298zm12.2 51.5h30.4v46.8h-30.4z"/>
    <path fill="#fff" fill-rule="evenodd" d="M614.1 614.1a1 1 0 0 0 0 1.4l44.7 44.8c.4.4 1 .4 1.4 0l66.7-66.8c.3-.4.3-1 0-1.4l-44.7-44.8a1 1 0 0 0-1.4 0l-21.3 21.4-7.5-7.5a2 2 0 0 0-2.8 0l-21.3 21.3a2 2 0 0 0 0 2.8l7.5 7.5-21.3 21.3zm41.1-41.2l-15.5 15.6-4-4a1 1 0 0 1 0-1.4l14.1-14.2a1 1 0 0 1 1.4 0l4 4z" clip-rule="evenodd"/>
    <ellipse cx="15.2" cy="15.6" fill="#fff" rx="15.2" ry="15.6" transform="translate(562 526.6)"/>
    <path fill="#fff" d="M549.7 562.5h54.8v46.8h-54.8zM562 614h30.3v46.8H562z"/>
    <path fill="#fff" fill-rule="evenodd" d="M865.9 614.1a1 1 0 0 0 0 1.4l44.6 44.8c.4.4 1 .4 1.4 0l66.7-66.8c.4-.4.4-1 0-1.4l-44.7-44.8a1 1 0 0 0-1.4 0l-21.3 21.4-7.5-7.5a2 2 0 0 0-2.8 0l-21.2 21.3a2 2 0 0 0 0 2.8l7.5 7.5-21.3 21.3zm41-41.2l-15.5 15.6-4-4a1 1 0 0 1 0-1.4l14.2-14.2a1 1 0 0 1 1.4 0l4 4z" clip-rule="evenodd"/>
    <ellipse cx="15.2" cy="15.6" fill="#fff" rx="15.2" ry="15.6" transform="translate(813.6 526.6)"/>
    <path fill="#fff" d="M801.5 562.5h54.8v46.8h-54.8zm12.1 51.5H844v46.8h-30.4zM205 154h16v552h-16zm856 0h16v552h-16z"/>
    <path fill="#F0B135" d="M205 175h872v114H205z"/>
    <path fill="#fff" d="M285 214h21.7l-1.2 5.7h-15.2l-1.9 8.8H301l-1 5.5h-12.6l-3 14.1h-6.6l7.2-34zm33 34.2c-2 0-3.8-.2-5.2-.8a9.5 9.5 0 0 1-3.5-2.5 10 10 0 0 1-2-3.6 24.8 24.8 0 0 1 0-10l3.8-17.4h6.6l-3.7 17.4a26.6 26.6 0 0 0-.5 4.3c0 1 .1 1.8.3 2.7a5.2 5.2 0 0 0 2.7 3.6c.8.3 1.7.5 2.7.5a7 7 0 0 0 3.9-1c1-.6 2-1.4 2.9-2.5a19.6 19.6 0 0 0 3.3-7.6l3.7-17.4h6.5l-3.7 17.4c-.4 2.3-1.2 4.5-2.2 6.6-1 2-2.2 3.8-3.7 5.3a16.2 16.2 0 0 1-11.9 5zm28.1-34.3h5.2l11.6 22.4 4.8-22.3h6.5l-7.2 34h-5.3L350 226.2l-4.6 21.8h-6.6l7.2-34zm35.3 0h11.8c2.2 0 4.1.4 5.7 1a10.8 10.8 0 0 1 6.4 7 21.3 21.3 0 0 1-.8 13.6 19.3 19.3 0 0 1-10.6 11c-2.4 1-5 1.5-8 1.5h-11.8l7.3-34zm5.8 28.3c1.8 0 3.4-.4 5-1.2a12 12 0 0 0 3.7-3 16.1 16.1 0 0 0 3.4-9.9c0-2.5-.7-4.5-2-6-1.1-1.6-3-2.4-5.3-2.4h-5.3l-4.8 22.5h5.3zm38.7-28.3h13.8a7.5 7.5 0 0 1 6 3 10.6 10.6 0 0 1 2.2 6.5c0 1.5-.4 3.1-1 4.7a14.4 14.4 0 0 1-6.9 7.3c-1.5.8-3.2 1.2-4.9 1.2h-7.4l-2.4 11.4h-6.6l7.2-34zm10 16.9c.6 0 1.3-.2 1.9-.6.6-.3 1.2-.8 1.7-1.4a7.8 7.8 0 0 0 1.6-4.9c0-1.4-.3-2.4-1-3a2.8 2.8 0 0 0-2.1-1.2h-6.7l-2.4 11h7zm25.5 17.4c-2 0-3.8-.3-5.4-1.1a12.5 12.5 0 0 1-6.4-7.7 18.3 18.3 0 0 1 .8-12.9 22.5 22.5 0 0 1 10.9-11 17 17 0 0 1 7.6-1.8 11.4 11.4 0 0 1 9.2 4.3c1 1.4 1.8 2.9 2.4 4.6a17.6 17.6 0 0 1-.8 12.9 22 22 0 0 1-10.8 11 16.5 16.5 0 0 1-7.5 1.7zm1.3-5.8c1.7 0 3.3-.4 4.8-1.3s2.7-2 3.8-3.3a15.6 15.6 0 0 0 3.3-9.4c0-1.2-.2-2.3-.4-3.3a8 8 0 0 0-1.4-2.9 6.4 6.4 0 0 0-5.3-2.6c-1.8 0-3.4.4-4.9 1.3-1.4.8-2.7 1.9-3.8 3.2A15.4 15.4 0 0 0 456 237a7 7 0 0 0 3.6 4.8 7 7 0 0 0 3 .7zm19.8 5.6l7.2-34h14.4c1.3 0 2.5.2 3.5.7 1 .5 1.9 1.3 2.6 2.1a10.6 10.6 0 0 1 1.5 10.2 14 14 0 0 1-4.3 6.2c-1 .8-2 1.5-3.1 2l4.6 12.8h-7.5l-4-11.4h-6l-2.3 11.4h-6.6zm17.8-17.2c.7 0 1.3-.2 2-.6.5-.3 1.1-.8 1.6-1.4a8.2 8.2 0 0 0 1.6-4.8c0-1.2-.3-2.2-.9-3-.6-.9-1.3-1.3-2.2-1.3h-7.3l-2.4 11h7.6zm25.2-11h-10.2l1.2-5.9h27l-1.3 5.8h-10.1l-6 28.3h-6.7l6.1-28.3zm22.3-5.9h21.8l-1.3 5.8h-15.2l-1.8 8.8h12.5l-1.1 5.4H550l-3 14.1h-6.6l7.3-34zm32.4 34.3c-2 0-3.8-.3-5.4-1.1a12.5 12.5 0 0 1-6.3-7.7 16 16 0 0 1-.9-5.3c0-2.6.6-5.1 1.7-7.6a22.5 22.5 0 0 1 10.8-11 17 17 0 0 1 7.6-1.8 11.4 11.4 0 0 1 9.2 4.3c1 1.4 1.9 2.9 2.4 4.6a17.6 17.6 0 0 1-.8 12.9 22 22 0 0 1-10.8 11 16.5 16.5 0 0 1-7.5 1.7zm1.3-5.8c1.8 0 3.4-.4 4.8-1.3a15 15 0 0 0 3.8-3.3 15.6 15.6 0 0 0 3.3-9.4c0-1.2-.1-2.3-.4-3.3a8 8 0 0 0-1.4-2.9 6.4 6.4 0 0 0-5.3-2.6c-1.8 0-3.4.4-4.8 1.3-1.5.8-2.8 1.9-3.8 3.2a15.4 15.4 0 0 0-3 12.8c.4 1 .8 2 1.4 2.8a7 7 0 0 0 2.2 2c1 .4 2 .7 3.2.7zm27-28.5h6.6l-6 28.3h16.3l-1.2 5.8h-22.9l7.3-34zm27 0h6.5l-7.2 34.1h-6.6l7.3-34zm20.3 34.3c-2 0-3.8-.3-5.4-1.1a12.5 12.5 0 0 1-6.4-7.7 18.3 18.3 0 0 1 .8-12.9 22.5 22.5 0 0 1 10.9-11 17 17 0 0 1 7.6-1.8 11.4 11.4 0 0 1 9.2 4.3c1 1.4 1.8 2.9 2.4 4.6a17.6 17.6 0 0 1-.8 12.9 22 22 0 0 1-10.8 11 16.5 16.5 0 0 1-7.5 1.7zm1.3-5.8c1.7 0 3.3-.4 4.8-1.3a17 17 0 0 0 3.8-3.3 15.6 15.6 0 0 0 3.3-9.4c0-1.2-.2-2.3-.5-3.3a8 8 0 0 0-1.3-2.9 6.4 6.4 0 0 0-5.3-2.6c-1.8 0-3.4.4-4.9 1.3a13 13 0 0 0-3.8 3.2 15.4 15.4 0 0 0-2.9 12.8c.3 1 .8 2 1.4 2.8a7 7 0 0 0 2.2 2c.9.4 2 .7 3.2.7zm44.8 5.9a11.3 11.3 0 0 1-9.1-4.5 17 17 0 0 1-2.5-4.6 18.3 18.3 0 0 1 1.8-14.8 23 23 0 0 1 7.1-7.6 20.3 20.3 0 0 1 10.3-3c3 0 5.5.6 7.4 2a9.7 9.7 0 0 1 3.7 5.4l-5.8 3.5c-.2-1-.5-1.8-1-2.4-.4-.7-1-1.2-1.6-1.6a5 5 0 0 0-2-.8 9.5 9.5 0 0 0-7 1c-1.5.8-2.7 2-3.8 3.3a15 15 0 0 0-3.2 9.2c0 1.2.2 2.4.5 3.5.3 1 .8 2 1.4 2.8a6 6 0 0 0 5.2 2.7 9.7 9.7 0 0 0 4.7-1.2 10.7 10.7 0 0 0 4.3-4l4.7 3.2c-.8 1.2-1.7 2.4-3 3.4a18.8 18.8 0 0 1-8 4 19 19 0 0 1-4 .5zm31.5 0c-2 0-3.8-.4-5.4-1.2a12.5 12.5 0 0 1-6.4-7.7 18.3 18.3 0 0 1 .8-12.9 22.5 22.5 0 0 1 10.9-11 17 17 0 0 1 7.6-1.8 11.4 11.4 0 0 1 9.2 4.3c1 1.4 1.9 2.9 2.4 4.6a17.6 17.6 0 0 1-.8 12.9 22 22 0 0 1-10.8 11 16.5 16.5 0 0 1-7.5 1.7zm1.3-6c1.8 0 3.4-.3 4.8-1.2a15 15 0 0 0 3.8-3.3 15.6 15.6 0 0 0 3.3-9.4c0-1.2-.1-2.3-.4-3.3a8 8 0 0 0-1.4-2.9 6.4 6.4 0 0 0-5.3-2.6c-1.8 0-3.4.4-4.9 1.3-1.4.8-2.7 1.9-3.7 3.2a15.4 15.4 0 0 0-3 12.8c.4 1 .8 2 1.4 2.8a7 7 0 0 0 2.2 2c1 .4 2 .7 3.2.7zm27-28.4h7.1l5.2 19.4 13.4-19.4h7l-7.2 34.1h-6.5l4.8-22.6-11.6 16.8h-3.6l-4.4-16.8L761 248h-6.6l7.2-34zm39.9 0h13.7a7.5 7.5 0 0 1 6 3c.8.8 1.3 1.8 1.6 3 .4 1 .6 2.2.6 3.4 0 1.6-.3 3.2-1 4.8a14.4 14.4 0 0 1-6.9 7.3 10 10 0 0 1-4.8 1.2h-7.5L801 248h-6.6l7.3-34zm10 16.9c.6 0 1.2-.2 1.8-.6.7-.3 1.2-.8 1.7-1.4.5-.6 1-1.4 1.2-2.2a8 8 0 0 0 .5-2.7c0-1.4-.3-2.4-1-3a2.8 2.8 0 0 0-2.2-1.2H807l-2.3 11h7zm18.8-16.9h22l-1.1 5.8h-15.6L834 228h13.4l-1.1 5.4h-13.4l-2 8.9h16l-1.2 5.8h-22.5l7.2-34zm34 5.8H854l1.2-5.8h27l-1.2 5.8h-10.2l-6 28.3h-6.6l6-28.3zm22.2-5.7h6.5l-7.2 34h-6.6l7.3-34zm19.8 5.7h-10.2l1.2-5.8h27l-1.2 5.8H913l-6 28.3h-6.6l6-28.3zm22.3-5.7h6.5l-7.2 34h-6.6l7.3-34zm20.3 34.2c-2 0-3.8-.3-5.4-1.1a12.5 12.5 0 0 1-6.4-7.7 18.3 18.3 0 0 1 .8-12.9 22.5 22.5 0 0 1 10.9-11 17 17 0 0 1 7.6-1.8 11.4 11.4 0 0 1 9.2 4.3c1 1.4 1.8 2.9 2.4 4.6a17.6 17.6 0 0 1-.8 12.9 22 22 0 0 1-10.8 11 16.5 16.5 0 0 1-7.5 1.7zm1.3-5.8c1.7 0 3.3-.4 4.8-1.3a17 17 0 0 0 3.8-3.3 15.6 15.6 0 0 0 3.3-9.4c0-1.2-.2-2.3-.5-3.3a8 8 0 0 0-1.3-2.9 6.4 6.4 0 0 0-5.3-2.6c-1.8 0-3.4.4-4.9 1.3-1.4.8-2.7 1.9-3.8 3.2a15.4 15.4 0 0 0-2.8 12.8 7 7 0 0 0 3.6 4.8 7 7 0 0 0 3 .7zm27-28.5h5.2l11.6 22.4 4.7-22.3h6.6l-7.2 34h-5.4l-11.5-21.8-4.7 21.8h-6.5l7.2-34z"/>
    <path fill="#fff" fill-rule="evenodd" d="M893.4 1354.5a1 1 0 0 0 0 1.5l44.7 44.7c.3.4 1 .4 1.4 0l66.6-66.8c.4-.4.4-1 0-1.4l-44.6-44.7a1 1 0 0 0-1.5 0l-21.2 21.3-7.5-7.5a2 2 0 0 0-2.9 0l-21.2 21.3a2 2 0 0 0 0 2.8l7.5 7.5-21.3 21.3zm41.1-41.2L919 1329l-4-4a1 1 0 0 1 0-1.5l14.2-14.2a1 1 0 0 1 1.4 0l4 4z" clip-rule="evenodd"/>
    <ellipse cx="15.2" cy="15.6" fill="#fff" rx="15.2" ry="15.6" transform="translate(841.2 1267)"/>
    <path fill="#fff" d="M829 1303h54.8v46.7H829zm12.2 51.5h30.4v46.8h-30.4z"/>
    <path fill="#27265C" d="M835.2 1293l16.5 28.6-5.2 3L830 1296zm41.3 0l-16.5 28.6 5.2 3 16.5-28.6z"/>
    <circle cx="13" cy="13" r="13" fill="#F0B135" transform="translate(843 1315)"/>
    <path fill="#F0B135" d="M779 1420.9h278.3v86H779z"/>
    <circle cx="33" cy="33" r="33" fill="#fff" transform="translate(885 1431)"/>
    <path fill="#F0B135" d="M919.2 1446.6c1.7 0 3.2.3 4.6.8 1.3.5 2.4 1.1 3.4 2a8.3 8.3 0 0 1 2.8 6.3c0 1.1-.1 2.1-.3 3-.3.8-.6 1.5-1 2.1a6 6 0 0 1-1.7 1.6c-.6.4-1.4.8-2.2 1 3.9 1.4 5.8 4 5.8 8a11 11 0 0 1-1 4.8 10 10 0 0 1-2.7 3.4c-1.1 1-2.4 1.6-4 2.1a17 17 0 0 1-9.1.1 10.5 10.5 0 0 1-6-4.6 20 20 0 0 1-2-4.2l3.3-1.3a3.6 3.6 0 0 1 1.7-.4c.5 0 1 .1 1.4.4.4.1.7.4.9.8a9 9 0 0 0 2.3 3c.8.5 1.8.8 2.8.8a4.8 4.8 0 0 0 3.7-1.5c.5-.4.8-1 1-1.5.2-.5.3-1.1.3-1.7 0-.7 0-1.4-.2-2 0-.6-.4-1.1-.8-1.6-.5-.4-1.3-.7-2.2-1a21 21 0 0 0-4-.3v-5.1a15 15 0 0 0 3.5-.4c.9-.2 1.5-.5 2-.9s.9-.9 1-1.4c.2-.6.3-1.2.3-1.9a5 5 0 0 0-1-3.2c-.7-.7-1.7-1-3-1a4.7 4.7 0 0 0-2.9.8 4.6 4.6 0 0 0-1.5 2.2c-.3.7-.6 1.2-1 1.5-.4.3-1 .5-1.6.5a6.4 6.4 0 0 1-1.1 0l-4-.8c.3-1.7.8-3.2 1.5-4.5a15 15 0 0 1 2.7-3.3 11 11 0 0 1 3.8-1.9 15 15 0 0 1 4.5-.7z"/>
    <path fill="#fff" fill-rule="evenodd" d="M617.4 1234.5a1 1 0 0 0 0 1.5l44.7 44.7c.3.4 1 .4 1.4 0L730 1214c.4-.4.4-1 0-1.4l-44.6-44.7a1 1 0 0 0-1.5 0l-21.2 21.3-7.5-7.5a2 2 0 0 0-2.9 0l-21.2 21.3a2 2 0 0 0 0 2.8l7.5 7.5-21.3 21.3zm41.1-41.2L643 1209l-4-4a1 1 0 0 1 0-1.5l14.2-14.2a1 1 0 0 1 1.4 0l4 4z" clip-rule="evenodd"/>
    <ellipse cx="15.2" cy="15.6" fill="#fff" rx="15.2" ry="15.6" transform="translate(565.2 1147)"/>
    <path fill="#fff" d="M553 1183h54.8v46.7H553zm12.2 51.5h30.4v46.8h-30.4z"/>
    <path fill="#27265C" d="M559.2 1173l16.5 28.6-5.2 3L554 1176zm41.3 0l-16.5 28.6 5.2 3 16.5-28.6z"/>
    <circle cx="13" cy="13" r="13" fill="#F0B135" transform="translate(567 1195)"/>
    <path fill="#F0B135" d="M503 1301h277.5v206H503z"/>
    <circle cx="33" cy="33" r="33" fill="#fff" transform="translate(609 1312)"/>
    <path fill="#F0B135" d="M634 1357.6h6.8v-20.3l-3.9 3.3-.8.4a2.5 2.5 0 0 1-1.8-.1l-.7-.6-2.4-3.1 10.9-9.2h6.1v29.6h5.8v5.4h-20v-5.4z"/>
    <path fill="#fff" fill-rule="evenodd" d="M340.4 1294.5a1 1 0 0 0 0 1.5l44.7 44.7c.3.4 1 .4 1.4 0L453 1274c.4-.4.4-1 0-1.4l-44.6-44.7a1 1 0 0 0-1.5 0l-21.2 21.3-7.5-7.5a2 2 0 0 0-2.9 0l-21.2 21.3a2 2 0 0 0 0 2.8l7.5 7.5-21.3 21.3zm41.1-41.2L366 1269l-4-4a1 1 0 0 1 0-1.5l14.2-14.2a1 1 0 0 1 1.4 0l4 4z" clip-rule="evenodd"/>
    <ellipse cx="15.2" cy="15.6" fill="#fff" rx="15.2" ry="15.6" transform="translate(288.2 1207)"/>
    <path fill="#fff" d="M276 1243h54.8v46.7H276zm12.2 51.5h30.4v46.8h-30.4z"/>
    <path fill="#27265C" d="M282.2 1233l16.5 28.6-5.2 3L277 1236zm41.3 0l-16.5 28.6 5.2 3 16.5-28.6z"/>
    <circle cx="13" cy="13" r="13" fill="#F0B135" transform="translate(290 1255)"/>
    <path fill="#F0B135" d="M226 1361.1h278.3v146H226z"/>
    <circle cx="33" cy="33" r="33" fill="#fff" transform="translate(332 1370)"/>
    <path fill="#F0B135" d="M365.5 1385.6a13 13 0 0 1 8.2 2.9c1 .9 1.7 2 2.2 3.2a11 11 0 0 1 .2 7.6 13 13 0 0 1-1.4 3.2 81.5 81.5 0 0 1-4.8 5.6l-6.8 7a23.2 23.2 0 0 1 5-.8h6.5c.8 0 1.4.2 1.9.7.5.4.7 1 .7 1.7v4.3h-24.6v-2.4l.3-1.5c.2-.5.5-1 1-1.4l10-10.2a33.4 33.4 0 0 0 4-4.8l.9-2.2c.2-.8.3-1.6.3-2.5a5 5 0 0 0-1-3.2c-.7-.7-1.7-1-3-1a4.7 4.7 0 0 0-2.8.8 4.6 4.6 0 0 0-1.6 2.2c-.3.7-.6 1.2-1 1.5-.4.3-1 .5-1.6.5a6.4 6.4 0 0 1-1 0l-4-.8a12.6 12.6 0 0 1 4.2-7.8 11 11 0 0 1 3.7-1.9 15 15 0 0 1 4.5-.7zM614 839.4l-614 32V957l534-62.2-50 62.2 800-117.6V823l-712 80.2 42-63.8z"/>
    <path fill="#fff" d="M421.4 1057.3l-69.8-11 58.7-58.8 11.1 69.8z"/>
    <path fill="#fff" fill-rule="evenodd" d="M367.7 739a205.9 205.9 0 0 0 0 291.1l26.5-26.5a168.4 168.4 0 0 1 0-238.1L367.7 739z" clip-rule="evenodd"/>
    <path fill="#fff" d="M1284 739l87 117.5-87 117.5v-58.6h-63V798h63v-59z"/>
    <path fill="#268FA6" d="M2568 739l87 117.5-87 117.5v-58.6h-63V798h63v-59z"/>
  </g>
  <defs>
    <clipPath id="clip0">
      <path fill="#fff" d="M0 0h3852v1713H0z"/>
    </clipPath>
  </defs>
</svg>
